<?xml version="1.0" encoding="utf-8"?>
<!-- Generator: Adobe Illustrator 25.2.0, SVG Export Plug-In . SVG Version: 6.00 Build 0)  -->
<svg version="1.1" id="aac6f6f3-c981-4065-a4a9-b98b9ec1ff0b"
	 xmlns="http://www.w3.org/2000/svg" xmlns:xlink="http://www.w3.org/1999/xlink" x="0px" y="0px" viewBox="0 0 1024.1 1342"
	 style="enable-background:new 0 0 1024.1 1342;" xml:space="preserve">
<style type="text/css">
	.st0{fill:#00328C;}
	.st1{fill:#D70528;}
</style>
<g>
	<path class="st0" d="M567.4,672c-18.9-85.8-37.9-171.8-56.9-257.9c-19,86.1-38,172.1-57,257.9h0.5l-148.2,670h67.8
		c44.9-204.3,89.8-408.3,134.7-612.2l4.3,0.6L647.3,1342H715L566.9,672H567.4z"/>
	<path class="st1" d="M1022.3,0c-49,223.3-99,446.7-148,670h-0.2c-7.3,32.6-14.5,65.1-21.7,97.7c-18.8,85.7-58.5,267.8-58.5,267.8
		l-3.5-18.8c0,0-50.5-231.1-75.9-346.7l0,0L566.5,0H454.4c-49.5,224-99.1,448-148.6,672h0.1c-7.2,32.3-14.4,64.7-21.5,97
		c-17.8,80.3-52.8,240.9-52.8,240.9l-5.6,25.6c0,0-9.2-41.9-12.8-58.4c-22.3-101.7-44.6-203.4-66.8-305.1h0.5
		C97.9,448.9,48,225.8-1,2.7V315l79.7,357h0.1c8.9,40.2,17.8,80.4,26.7,120.7c30.7,139.4,61.3,278.8,91.8,418.3
		c9.4,42.8,18.7,85.7,28.6,131.1c1.7-6.3,2.8-9.9,3.6-13.6c38.3-175,76.7-350,115-525c9.8-44.5,19.6-89,29.6-133.5H374
		c44.8-203.6,89.6-407,134.3-610.1l4.3,0.6L646.8,670h-0.7c8.2,37.3,16.4,74.6,24.6,111.8c30.8,139.8,61.8,279.6,93,419.4
		c10,45.4,19.8,90.9,30.6,140.5c2.3-8.7,3.6-13,4.6-17.5c35.7-162.5,71.3-325,107-487.5c12.3-55.6,24.6-111.1,36.9-166.7h-0.1
		c26.2-118.6,53.3-237.1,79.5-355.7l3.1,0.4V0H1022.3z"/>
	<path class="st0" d="M197.3,540.9c9.4,42.8,18.7,85.7,28.6,131.1c1.7-6.3,2.8-9.9,3.6-13.5c38.3-175,76.7-350,115-525
		c9.8-44.5,19.6-89,29.6-133.5h-67.8c-7.3,33-14.7,66-22,99c-17.8,80.3-52.8,240.9-52.8,240.9l-5.6,25.6c0,0-9.2-41.9-12.8-58.4
		C190.8,204.7,168.4,102.4,146,0H78.3c9.1,40.9,18.1,81.8,27.2,122.7C136.3,262,166.8,401.5,197.3,540.9z"/>
	<path class="st0" d="M763.7,531.2c10,45.4,19.8,90.9,30.6,140.5c2.3-8.7,3.6-13,4.6-17.5c35.7-162.5,71.3-325,107-487.5
		C918,111.1,930.3,55.5,942.7,0h-68.5c-7.3,32.6-14.5,65.1-21.7,97.7C833.7,183.4,794,365.5,794,365.5l-3.5-18.8
		c0,0-50.5-231.1-75.9-346.7h-68.5c8.2,37.3,16.4,74.6,24.6,111.8C701.5,251.6,732.5,391.4,763.7,531.2z"/>
	<path class="st1" d="M453.5,1342h113.9c-18.9-85.8-37.9-171.8-56.9-257.9C491.4,1170.2,472.5,1256.2,453.5,1342z"/>
	<path class="st0" d="M873.9,1342h68.2c26.3-119.2,53.6-238.5,79.9-357.7l3.1,0.4V670h-2.8L873.9,1342z"/>
	<path class="st0" d="M-1,985l79.7,357h68.2C97.9,1118.9,48,895.8-1,672.7V985z"/>
</g>
</svg>
