<svg id="e8109763-775f-409c-abf2-dfc6c89ee095" data-name="Layer 1" xmlns="http://www.w3.org/2000/svg" width="1024.08" height="672" viewBox="0 0 1024.08 672">
  <path d="M453.52,672.52H567.4Q539,543.76,510.48,414.59,481.93,543.8,453.52,672.52Z" transform="translate(0 -0.52)" style="fill: #ff6e00"/>
  <path d="M942.11,672.52q39.45-178.85,78.91-357.7l3.06.44V.52h-2.79l-147.39,672Z" transform="translate(0 -0.52)" style="fill: #ff6e00"/>
  <path d="M146.89,672.52Q73.45,337.86,0,3.18V315.5l78.69,357Z" transform="translate(0 -0.52)" style="fill: #ff6e00"/>
  <path d="M373.57,672.52Q441,366.1,508.33,60.36l4.26.56,134.67,611.6h67.79q-74.28-336-148.55-672H454.4q-74.31,336-148.61,672Z" transform="translate(0 -0.52)" style="fill: #ff6e00"/>
  <path d="M197.26,541.45c9.39,42.84,18.72,85.69,28.63,131.07,1.7-6.28,2.83-9.88,3.63-13.55q57.51-262.48,115-525Q359.19,67.23,374.12.52H306.36q-11,49.52-22,99c-17.77,80.26-52.78,240.91-52.78,240.91L226,366s-9.16-41.86-12.79-58.41Q179.55,154.07,146,.52H78.34q13.6,61.32,27.17,122.65Q151.64,332.26,197.26,541.45Z" transform="translate(0 -0.52)" style="fill: #ff6e00"/>
  <path d="M763.65,531.7c10.05,45.42,19.79,90.92,30.57,140.51,2.27-8.66,3.59-13.05,4.57-17.51q53.49-243.75,107-487.49Q924.15,83.84,942.69.52H874.17q-10.9,48.83-21.65,97.67C833.72,183.91,794,366,794,366l-3.5-18.81S740,116.06,714.62.52H646.11q12.27,55.92,24.56,111.82Q716.95,322.07,763.65,531.7Z" transform="translate(0 -0.52)" style="fill: #ff6e00"/>
</svg>
