<?xml version="1.0" standalone="no"?>
<!DOCTYPE svg PUBLIC "-//W3C//DTD SVG 20010904//EN"
 "http://www.w3.org/TR/2001/REC-SVG-20010904/DTD/svg10.dtd">
<svg version="1.0" xmlns="http://www.w3.org/2000/svg"
 width="512.000000pt" height="512.000000pt" viewBox="0 0 512.000000 512.000000"
 preserveAspectRatio="xMidYMid meet">
<metadata>
Created by potrace 1.11, written by Peter Selinger 2001-2013
</metadata>
<g transform="translate(0.000000,512.000000) scale(0.100000,-0.100000)"
fill="#000000" stroke="none">
<path d="M552 5108 c-224 -30 -422 -197 -493 -418 -19 -61 -24 -95 -23 -180 1
-113 11 -161 52 -249 78 -167 215 -282 397 -332 67 -18 96 -21 180 -16 163 9
282 62 395 176 117 119 173 250 173 411 1 113 -13 180 -58 275 -83 174 -264
308 -445 329 -98 12 -114 12 -178 4z m177 -179 c242 -56 389 -316 310 -551
-47 -141 -151 -239 -295 -279 -265 -74 -534 130 -536 406 -3 276 255 486 521
424z"/>
<path d="M2528 5115 c-2 -2 -26 -5 -55 -9 -231 -27 -437 -214 -498 -451 -19
-70 -21 -200 -6 -268 46 -198 177 -354 368 -435 73 -31 113 -37 238 -36 89 0
122 5 174 23 160 58 288 171 354 313 25 55 54 154 55 191 5 133 0 171 -30 262
-30 93 -76 164 -151 238 -105 103 -234 158 -399 170 -27 2 -49 3 -50 2z m185
-204 c288 -111 367 -483 148 -701 -83 -83 -161 -118 -273 -125 -311 -18 -537
284 -429 574 66 176 228 283 416 277 53 -2 100 -11 138 -25z"/>
<path d="M4424 5108 c-230 -26 -422 -176 -503 -391 -28 -77 -34 -115 -34 -217
2 -231 145 -446 363 -543 100 -45 271 -59 380 -31 370 95 563 508 395 849
-111 226 -354 361 -601 333z m171 -183 c315 -83 424 -483 195 -714 -105 -106
-256 -149 -403 -115 -191 45 -331 223 -328 418 4 279 268 481 536 411z"/>
<path d="M379 3632 c-3 -15 3 -42 121 -572 21 -96 42 -191 45 -210 3 -19 10
-51 15 -70 8 -29 79 -347 94 -422 3 -13 28 -126 56 -253 28 -126 59 -268 69
-315 11 -47 36 -161 56 -255 20 -93 38 -177 40 -185 2 -8 8 -35 14 -60 17 -72
50 -223 55 -250 2 -14 13 -63 25 -110 11 -47 22 -97 24 -110 3 -14 8 -36 11
-50 3 -14 39 -180 81 -370 41 -190 78 -355 80 -368 5 -20 10 -23 38 -18 38 6
131 27 135 31 1 1 -9 53 -23 116 -14 63 -27 124 -29 135 -3 12 -21 94 -40 182
-20 88 -38 168 -41 178 -45 215 -70 327 -100 459 -19 88 -38 170 -40 183 -3
12 -7 32 -10 45 -2 12 -20 93 -40 179 -19 86 -38 174 -41 195 -3 21 -8 41 -10
45 -3 5 -23 96 -50 223 -2 11 -35 162 -74 335 -39 173 -72 324 -74 335 -4 18
-56 256 -76 345 -7 33 -38 176 -45 210 -2 8 -11 48 -20 89 -9 40 -18 78 -19
85 -2 6 -6 22 -9 36 -3 14 -15 68 -27 121 l-21 96 -84 1 c-47 0 -86 -3 -86 -6z"/>
<path d="M980 3621 c0 -9 5 -36 11 -61 6 -25 12 -52 14 -60 18 -83 149 -679
160 -725 8 -33 17 -76 20 -95 3 -19 10 -48 15 -65 5 -16 12 -45 15 -63 3 -18
26 -124 50 -235 25 -111 47 -211 50 -222 12 -60 40 -186 101 -461 7 -34 15
-72 18 -85 3 -13 39 -179 81 -369 42 -190 78 -354 81 -365 11 -57 27 -116 30
-112 3 3 94 408 107 477 3 14 10 45 16 70 12 50 217 981 231 1045 4 22 15 74
25 115 9 41 19 86 21 100 3 14 18 84 34 155 79 351 210 953 210 965 0 4 -39 7
-87 6 l-87 -1 -8 -30 c-4 -16 -10 -43 -13 -60 -7 -43 -11 -63 -29 -136 -8 -35
-67 -302 -131 -594 -64 -291 -118 -537 -120 -545 -2 -8 -15 -69 -29 -135 -14
-66 -44 -203 -67 -305 -47 -213 -45 -201 -53 -260 -4 -25 -10 -67 -14 -95 l-8
-50 -13 90 c-16 109 -27 162 -96 475 -19 86 -68 308 -70 320 -2 8 -16 69 -30
135 -15 66 -31 138 -36 160 -4 22 -39 182 -78 355 -38 173 -72 326 -74 340 -3
14 -10 45 -16 70 -5 25 -20 88 -31 140 -12 52 -23 102 -26 111 -7 25 -174 25
-174 0z"/>
<path d="M2850 3628 c0 -4 23 -113 51 -241 28 -127 52 -239 54 -247 2 -8 9
-37 15 -65 6 -27 14 -61 16 -75 5 -27 38 -178 55 -250 6 -25 13 -56 16 -70 2
-14 18 -86 34 -160 62 -281 100 -452 150 -680 61 -280 53 -244 79 -360 12 -52
24 -106 26 -120 3 -14 14 -65 25 -115 12 -49 23 -99 25 -110 10 -49 14 -67 39
-180 15 -66 29 -131 31 -145 3 -14 10 -47 17 -74 l13 -49 67 309 c38 170 80
361 94 424 13 63 26 122 28 130 2 8 15 69 30 135 15 66 28 129 31 140 2 11 15
72 29 135 15 63 29 126 31 140 5 23 18 82 30 135 3 11 7 31 10 45 3 14 19 86
36 160 16 74 32 146 35 160 2 14 13 66 24 115 12 50 22 97 24 105 1 8 22 101
45 205 70 319 81 369 86 395 3 14 14 62 24 108 11 46 20 89 20 95 0 8 -27 12
-85 12 -92 1 -90 2 -101 -61 -3 -14 -12 -56 -20 -93 -9 -36 -18 -77 -20 -91
-3 -14 -7 -33 -10 -42 -3 -10 -7 -29 -10 -43 -2 -14 -31 -148 -65 -297 -33
-150 -75 -345 -95 -433 -19 -88 -39 -180 -45 -205 -6 -25 -12 -52 -14 -60 -23
-109 -58 -273 -74 -340 -11 -47 -22 -97 -24 -110 -3 -14 -12 -55 -21 -93 -9
-37 -18 -82 -21 -100 -3 -17 -7 -43 -10 -57 -3 -14 -7 -38 -9 -55 -18 -124
-23 -136 -30 -79 -15 110 -25 169 -41 240 -8 34 -16 73 -19 85 -10 53 -137
627 -146 659 -5 19 -12 51 -15 70 -3 19 -17 84 -31 145 -13 60 -26 119 -28
130 -2 11 -11 50 -20 86 -8 37 -17 78 -20 90 -4 22 -51 235 -62 284 -3 11 -8
38 -13 60 -23 108 -62 282 -67 297 -4 14 -18 16 -89 16 -47 -1 -85 -5 -85 -10z"/>
<path d="M4564 3606 c-4 -17 -9 -35 -10 -41 -1 -5 -12 -55 -24 -110 -28 -129
-26 -122 -40 -180 -6 -27 -14 -61 -16 -75 -3 -14 -25 -113 -49 -220 -24 -107
-62 -280 -84 -385 -23 -104 -53 -239 -66 -300 -14 -60 -59 -265 -100 -455 -41
-190 -79 -363 -85 -385 -13 -57 -51 -225 -56 -255 -3 -14 -25 -117 -50 -229
-25 -112 -47 -213 -49 -223 -2 -11 -6 -27 -9 -36 -3 -9 -8 -33 -11 -52 -3 -19
-12 -62 -20 -95 -8 -33 -30 -134 -50 -225 -20 -91 -42 -194 -51 -229 -8 -35
-13 -65 -11 -67 7 -7 159 -36 163 -31 4 4 47 187 68 287 5 25 45 209 71 325
37 164 150 676 176 800 17 77 33 149 35 160 3 11 7 29 9 40 15 66 87 393 91
410 2 11 9 41 14 67 5 26 23 107 39 180 17 73 55 248 86 388 31 140 73 334 95
430 21 96 41 186 44 200 3 14 12 57 21 95 8 39 20 90 25 115 5 25 14 62 19 83
5 20 6 39 2 41 -3 2 -43 4 -88 4 l-82 0 -7 -32z"/>
<path d="M2558 2985 c-5 -9 -9 -25 -22 -90 -3 -11 -12 -54 -21 -95 -9 -41 -18
-84 -21 -95 -7 -38 -125 -570 -170 -769 -24 -110 -46 -211 -49 -225 -3 -14 -7
-35 -9 -46 -6 -25 -65 -293 -71 -320 -3 -11 -28 -123 -56 -250 -28 -126 -53
-241 -55 -254 -3 -12 -11 -51 -19 -85 -8 -33 -16 -72 -19 -86 -3 -14 -14 -68
-26 -120 -12 -52 -24 -106 -26 -120 -4 -21 -22 -101 -40 -175 -6 -26 -44 -206
-44 -210 0 -5 162 -37 166 -33 3 4 30 118 49 208 2 9 15 69 30 135 32 142 26
116 64 290 16 77 37 169 45 205 8 36 17 76 20 90 3 14 23 108 46 210 22 102
50 228 61 280 11 52 22 102 24 110 107 484 132 609 137 683 1 15 6 27 11 27 4
0 7 -8 6 -17 -2 -10 0 -36 4 -58 4 -22 10 -57 13 -79 8 -51 15 -89 35 -171 7
-31 70 -316 164 -745 2 -8 9 -37 15 -65 6 -27 14 -61 16 -75 3 -14 10 -45 15
-70 6 -25 12 -52 14 -60 2 -8 35 -160 75 -338 39 -177 73 -330 75 -340 40
-186 50 -222 62 -222 8 0 46 7 84 16 l70 16 -4 31 c-3 18 -40 187 -82 377 -42
190 -78 352 -80 360 -16 72 -37 172 -45 205 -5 22 -18 82 -29 133 -12 50 -30
131 -41 180 -27 121 -241 1092 -246 1117 -5 27 -21 100 -49 220 -13 55 -26
116 -30 135 -15 90 -42 193 -47 185z"/>
</g>
</svg>
