<svg id="instagram" xmlns="http://www.w3.org/2000/svg" width="21.273" height="21.277" viewBox="0 0 21.273 21.277">
  <path id="Path_187" data-name="Path 187" d="M21.668,6.256a7.775,7.775,0,0,0-.495-2.581A5.45,5.45,0,0,0,18.06.561,7.8,7.8,0,0,0,15.479.067C14.34.013,13.979,0,11.09,0S7.84.013,6.7.062A7.777,7.777,0,0,0,4.124.557a5.191,5.191,0,0,0-1.887,1.23A5.239,5.239,0,0,0,1.01,3.67,7.8,7.8,0,0,0,.516,6.251C.462,7.39.449,7.752.449,10.641s.013,3.25.062,4.385a7.774,7.774,0,0,0,.495,2.581A5.45,5.45,0,0,0,4.119,20.72a7.8,7.8,0,0,0,2.581.495c1.135.05,1.5.062,4.385.062s3.25-.012,4.385-.062a7.773,7.773,0,0,0,2.581-.495,5.442,5.442,0,0,0,3.113-3.113,7.8,7.8,0,0,0,.495-2.581c.05-1.135.062-1.5.062-4.385S21.718,7.39,21.668,6.256Zm-1.916,8.687a5.832,5.832,0,0,1-.366,1.974,3.53,3.53,0,0,1-2.02,2.02,5.853,5.853,0,0,1-1.974.366c-1.122.05-1.459.062-4.3.062s-3.18-.012-4.3-.062a5.829,5.829,0,0,1-1.974-.366A3.274,3.274,0,0,1,3.6,18.143a3.308,3.308,0,0,1-.794-1.222,5.853,5.853,0,0,1-.366-1.974c-.05-1.122-.062-1.459-.062-4.3s.012-3.18.062-4.3a5.829,5.829,0,0,1,.366-1.974,3.234,3.234,0,0,1,.8-1.222,3.3,3.3,0,0,1,1.222-.794A5.857,5.857,0,0,1,6.8,2c1.122-.05,1.459-.062,4.3-.062s3.18.013,4.3.062a5.832,5.832,0,0,1,1.974.366,3.272,3.272,0,0,1,1.222.794,3.307,3.307,0,0,1,.794,1.222,5.856,5.856,0,0,1,.366,1.974c.05,1.122.062,1.459.062,4.3S19.8,13.82,19.752,14.943Zm0,0" transform="translate(-0.449 0)" fill="#3c9cfa"/>
  <path id="Path_188" data-name="Path 188" d="M130.415,124.5a5.466,5.466,0,1,0,5.466,5.466A5.467,5.467,0,0,0,130.415,124.5Zm0,9.011a3.546,3.546,0,1,1,3.546-3.546A3.546,3.546,0,0,1,130.415,133.511Zm0,0" transform="translate(-119.774 -119.325)" fill="#3c9cfa"/>
  <path id="Path_189" data-name="Path 189" d="M365,89.878a1.276,1.276,0,1,1-1.276-1.276A1.276,1.276,0,0,1,365,89.878Zm0,0" transform="translate(-347.403 -84.919)" fill="#3c9cfa"/>
</svg>
