<svg xmlns="http://www.w3.org/2000/svg" width="25" height="30" viewBox="0 0 25 30">
  <g id="pinterest" transform="translate(-0.125 -0.286)">
    <path id="Fill_1" data-name="Fill 1" d="M12.919,0C4.484,0,0,5.27,0,11.015,0,13.679,1.527,17,3.972,18.057c.7.306.605-.067,1.205-2.305a.522.522,0,0,0-.131-.521c-3.5-3.941-.682-12.044,7.373-12.044,11.658,0,9.48,15.728,2.028,15.728a2.705,2.705,0,0,1-2.9-3.289c.549-2.166,1.623-4.495,1.623-6.056,0-3.935-6.013-3.351-6.013,1.863a6.178,6.178,0,0,0,.585,2.7S5.809,21.75,5.45,23.174c-.608,2.41.082,6.311.142,6.647a.2.2,0,0,0,.369.091,23.381,23.381,0,0,0,3.185-5.848c.238-.856,1.217-4.331,1.217-4.331a5.363,5.363,0,0,0,4.485,2.085C20.741,21.819,25,16.769,25,10.5,24.979,4.495,19.706,0,12.919,0Z" transform="translate(0.125 0.286)"/>
  </g>
</svg>
